<svg width="401" height="113" viewBox="0 0 401 113" fill="none" xmlns="http://www.w3.org/2000/svg">
<path fill-rule="evenodd" clip-rule="evenodd" d="M267 90.25V22.75H195.75V90.25H267ZM270.75 19H177V94H270.75V19Z" fill="black"/>
<path d="M34.432 22.032H46.72L54.496 44.592L62.368 22.032H74.56L62.848 53.04L71.488 74.736L90.784 21.84H105.184L77.92 90H66.496L54.496 61.392L42.592 90H31.168L4 21.84H18.208L37.6 74.736L46.048 53.04L34.432 22.032Z" fill="black"/>
<path d="M112.167 90V21.84H142.311C145.447 21.84 148.326 22.48 150.951 23.76C153.639 25.04 155.943 26.768 157.863 28.944C159.847 31.12 161.35 33.552 162.374 36.24C163.462 38.928 164.007 41.68 164.007 44.496C164.007 47.376 163.495 50.16 162.471 52.848C161.511 55.472 160.103 57.776 158.247 59.76C156.391 61.744 154.215 63.28 151.719 64.368L167.271 90H152.678L138.663 67.152H125.415V90H112.167ZM125.415 55.536H142.023C143.687 55.536 145.159 55.056 146.439 54.096C147.719 53.072 148.742 51.728 149.51 50.064C150.278 48.4 150.663 46.544 150.663 44.496C150.663 42.32 150.214 40.432 149.318 38.832C148.422 37.168 147.271 35.856 145.863 34.896C144.519 33.936 143.047 33.456 141.447 33.456H125.415V55.536Z" fill="black"/>
<path d="M337.08 33.456H315.288V90H302.136V33.456H280.344V21.84H337.08V33.456Z" fill="black"/>
<path d="M392.87 78.384V90H345.542V21.84H392.005V33.456H358.789V49.872H387.493V60.624H358.789V78.384H392.87Z" fill="black"/>
<path d="M225.508 69V52.224L218.956 64.716H216.184L209.632 52.224V69H204.664V43.44H209.992L217.552 57.984L225.184 43.44H230.476V69H225.508Z" fill="black"/>
<path d="M246.432 69.18C244.776 69.18 243.204 68.844 241.716 68.172C240.252 67.5 238.956 66.576 237.828 65.4C236.724 64.2 235.86 62.808 235.236 61.224C234.612 59.64 234.3 57.924 234.3 56.076C234.3 54.324 234.612 52.68 235.236 51.144C235.86 49.584 236.736 48.216 237.864 47.04C238.992 45.864 240.312 44.94 241.824 44.268C243.336 43.596 244.98 43.26 246.756 43.26C249.156 43.26 251.208 43.776 252.912 44.808C254.64 45.816 255.936 47.16 256.8 48.84L253.092 51.576C252.444 50.304 251.532 49.332 250.356 48.66C249.204 47.988 247.944 47.652 246.576 47.652C245.496 47.652 244.512 47.88 243.624 48.336C242.736 48.792 241.968 49.416 241.32 50.208C240.672 51 240.168 51.912 239.808 52.944C239.472 53.976 239.304 55.068 239.304 56.22C239.304 57.444 239.484 58.572 239.844 59.604C240.228 60.636 240.756 61.536 241.428 62.304C242.124 63.072 242.928 63.684 243.84 64.14C244.752 64.572 245.76 64.788 246.864 64.788C248.16 64.788 249.396 64.452 250.572 63.78C251.772 63.108 252.888 62.124 253.92 60.828V65.724C251.784 68.028 249.288 69.18 246.432 69.18ZM253.56 59.496H248.412V55.86H257.664V69H253.56V59.496Z" fill="black"/>
</svg>
